<svg xmlns="http://www.w3.org/2000/svg" xmlns:xlink="http://www.w3.org/1999/xlink" viewBox="0 0 765.95 620.8"><defs><style>.cls-1{fill:#ed8c19;}.cls-2{fill:url(#Unbenannter_Verlauf_42);}.cls-3{fill:url(#Unbenannter_Verlauf_31);}.cls-4{fill:url(#Unbenannter_Verlauf_30);}.cls-5{fill:url(#Unbenannter_Verlauf_37);}.cls-6{fill:url(#Unbenannter_Verlauf_36);}</style><radialGradient id="Unbenannter_Verlauf_42" cx="729.14" cy="340.43" fx="590.1555874589947" r="169.06" gradientUnits="userSpaceOnUse"><stop offset="0" stop-color="#222"/><stop offset="0.01" stop-color="#393939"/><stop offset="0.03" stop-color="#626262"/><stop offset="0.06" stop-color="#888"/><stop offset="0.08" stop-color="#a8a8a8"/><stop offset="0.11" stop-color="#c4c4c4"/><stop offset="0.14" stop-color="#dadada"/><stop offset="0.18" stop-color="#ebebeb"/><stop offset="0.23" stop-color="#f6f6f6"/><stop offset="0.29" stop-color="#fdfdfd"/><stop offset="0.48" stop-color="#fff"/><stop offset="0.5" stop-color="#e8e8e8"/><stop offset="0.57" stop-color="#adadad"/><stop offset="0.64" stop-color="#7c7c7c"/><stop offset="0.7" stop-color="#565656"/><stop offset="0.76" stop-color="#3b3b3b"/><stop offset="0.81" stop-color="#2b2b2b"/><stop offset="0.85" stop-color="#252525"/></radialGradient><linearGradient id="Unbenannter_Verlauf_31" x1="100.19" y1="295.35" x2="606.11" y2="295.35" gradientUnits="userSpaceOnUse"><stop offset="0" stop-color="#ababab"/><stop offset="0.18" stop-color="#999"/><stop offset="0.53" stop-color="#6a6a6a"/><stop offset="1" stop-color="#232323"/></linearGradient><linearGradient id="Unbenannter_Verlauf_30" x1="500.52" y1="125.8" x2="76.54" y2="342.53" gradientUnits="userSpaceOnUse"><stop offset="0" stop-color="#a3a3a3"/><stop offset="0.05" stop-color="#989898"/><stop offset="0.26" stop-color="#6d6d6d"/><stop offset="0.47" stop-color="#4b4b4b"/><stop offset="0.67" stop-color="#333"/><stop offset="0.85" stop-color="#242424"/><stop offset="1" stop-color="#1f1f1f"/></linearGradient><linearGradient id="Unbenannter_Verlauf_37" x1="100.19" y1="557.7" x2="597.12" y2="557.7" gradientUnits="userSpaceOnUse"><stop offset="0" stop-color="#5c5c5c"/><stop offset="0" stop-color="#5b5b5b"/><stop offset="0.1" stop-color="#404040"/><stop offset="0.15" stop-color="#363636"/><stop offset="0.26" stop-color="#3e3e3e"/><stop offset="0.41" stop-color="#535353"/><stop offset="0.6" stop-color="#777"/><stop offset="0.82" stop-color="#a7a7a7"/><stop offset="1" stop-color="#d4d4d4"/></linearGradient><linearGradient id="Unbenannter_Verlauf_36" x1="100.19" y1="582.22" x2="623.13" y2="582.22" gradientUnits="userSpaceOnUse"><stop offset="0" stop-color="#d2d2d2"/><stop offset="0.13" stop-color="#bfbfbf"/><stop offset="0.39" stop-color="#8e8e8e"/><stop offset="0.75" stop-color="#3f3f3f"/><stop offset="0.84" stop-color="#2a2a2a"/><stop offset="0.91" stop-color="#535353"/><stop offset="0.97" stop-color="#6d6d6d"/><stop offset="1" stop-color="#777"/></linearGradient></defs><g id="Ebene_2" data-name="Ebene 2"><g id="Ebene_1-2" data-name="Ebene 1"><path class="cls-1" d="M648.83,505.07l7.15,5.28V496.89Q652.51,501,648.83,505.07ZM666,1V530.16L641.93,512.4l0,0-8.2-6.05,0,0L180.19,171.49v23.69l380,280.55,18.62,13.75,24.85,18.35,16,11.8h0l8.31,6.14,16.91,12.48,24.54,18.12L683.72,567l2.39,1.77V1ZM636.11,1V469.65l-21.69-16-9.21-6.8L180.19,133v26L640.64,499l8.19,6.05,7.15,5.28V1Z"/><path class="cls-2" d="M738.75,211.21a307.37,307.37,0,0,0-22.64-40.85v64a267.38,267.38,0,0,1,0,202.15v64c1-1.58,2.07-3.18,3.08-4.78a307.56,307.56,0,0,0,19.56-36.07,297.46,297.46,0,0,0,0-248.53Z"/><path class="cls-3" d="M606.11,102.45v23.94C555.63,89.55,493.63,69.56,428.32,69.56H119.94v471H100.19V50.14H428.56C493.05,50.14,554.55,68.46,606.11,102.45Z"/><path class="cls-4" d="M606.11,139.05v26.21c-46.21-40.33-108.78-65.12-177.55-65.12H150.19V540.56H129.94v-461H428.32C495.91,79.56,557.93,101.93,606.11,139.05Z"/><path class="cls-5" d="M122.06,590.15H100.19V570.78h50v0H428.56c55.93,0,107.74-16.39,150-44.2l2.06-1.37,16.5,12.11c-46.79,33.13-105.34,52.84-168.8,52.84H122.06Z"/><path class="cls-6" d="M623.13,556.41,621.05,558c-54.41,40.72-121.64,62.83-192.49,62.83H100.19V600.14h19.75v0H428.32c65.15,0,127-19.88,177.4-56.54l0,0Z"/><polygon class="cls-1" points="100.17 570.78 100.17 590.15 29.86 590.15 29.86 570.78 29.87 570.78 29.87 60.51 70.19 90.28 70.19 113.97 50 99.06 50 570.78 100.17 570.78"/><polygon class="cls-1" points="100.17 600.14 100.17 620.8 0 620.8 0 0 70.19 51.82 70.19 77.84 19.87 40.69 19.87 600.14 100.17 600.14"/></g></g></svg>