<svg xmlns="http://www.w3.org/2000/svg" viewBox="0 0 765.95 620.8"><g id="Ebene_2" data-name="Ebene 2"><g id="Ebene_1-2" data-name="Ebene 1"><path d="M636.11,1V469.65l-21.69-16-9.21-6.8L180.19,133v26L640.64,499l8.19,6.05,7.15,5.28V2.05h10V530.16L641.93,512.4l0,0-8.2-6.05,0,0L180.19,171.49v23.69l380,280.55,18.62,13.75,24.85,18.35,16,11.8h0l8.31,6.14,16.91,12.48,24.54,18.12L683.72,567l2.39,1.77V1Zm12.72,504.09,7.15,5.28V496.89Q652.51,501,648.83,505.07Z"/><path d="M738.75,211.21a307.37,307.37,0,0,0-22.64-40.85v64a267.38,267.38,0,0,1,0,202.15v64c1-1.58,2.07-3.18,3.08-4.78a307.56,307.56,0,0,0,19.56-36.07,297.46,297.46,0,0,0,0-248.53Z"/><path d="M606.11,102.45v23.94C555.63,89.55,493.63,69.56,428.32,69.56H119.94v471H100.19V50.14H428.56C493.05,50.14,554.55,68.46,606.11,102.45Z"/><path d="M606.11,139.05v26.21c-46.21-40.33-108.78-65.12-177.55-65.12H150.19V540.56H129.94v-461H428.32C495.91,79.56,557.93,101.93,606.11,139.05Z"/><path d="M122.06,590.15H100.19V570.78h50v0H428.56c55.93,0,107.74-16.39,150-44.2l2.06-1.37,16.5,12.11c-46.79,33.13-105.34,52.84-168.8,52.84H122.06Z"/><path d="M623.13,556.41,621.05,558c-54.41,40.72-121.64,62.83-192.49,62.83H100.19V600.14h19.75v0H428.32c65.15,0,127-19.88,177.4-56.54l0,0Z"/><polygon points="100.17 570.78 100.17 590.15 29.86 590.15 29.86 570.78 29.87 570.78 29.87 60.51 70.19 90.28 70.19 113.97 50 99.06 50 570.78 100.17 570.78"/><polygon points="100.17 600.14 100.17 620.8 0 620.8 0 0 70.19 51.82 70.19 77.84 19.87 40.69 19.87 600.14 100.17 600.14"/></g></g></svg>